<svg width="24" height="24" viewBox="0 0 24 24" fill="none" xmlns="http://www.w3.org/2000/svg">
<rect width="24" height="24" rx="4" fill="#1877F2"/>
<path d="M20 12C20 7.58125 16.4187 4 12 4C7.58125 4 4 7.58125 4 12C4 15.75 6.58437 18.9 10.0687 19.7656V14.4438H8.41875V12H10.0687V10.9469C10.0687 8.225 11.3 6.9625 13.975 6.9625C14.4813 6.9625 15.3562 7.0625 15.7156 7.1625V9.375C15.5281 9.35625 15.2 9.34375 14.7906 9.34375C13.4781 9.34375 12.9719 9.84062 12.9719 11.1312V12H15.5844L15.1344 14.4438H12.9688V19.9406C16.9312 19.4625 20 16.0906 20 12Z" fill="white"/>
</svg>
